<svg width="24" height="24" viewBox="0 0 24 24" fill="none" xmlns="http://www.w3.org/2000/svg"><g clip-path="url(#clip0_63080_146)"><path d="M17.5 12C17.5 10.4667 16.9667 9.16667 15.9 8.1C14.8333 7.03333 13.5333 6.5 12 6.5C13.5333 6.5 14.8333 5.96667 15.9 4.9C16.9667 3.83333 17.5 2.53333 17.5 0.999999C17.5 2.53333 18.0333 3.83333 19.1 4.9C20.1667 5.96667 21.4667 6.5 23 6.5C21.4667 6.5 20.1667 7.03333 19.1 8.1C18.0333 9.16667 17.5 10.4667 17.5 12ZM2 22V4C2 3.45 2.19167 2.98333 2.575 2.6C2.975 2.2 3.45 2 4 2H14V4H4V16H20V9.975H22V16C22 16.55 21.8 17.025 21.4 17.425C21.0167 17.8083 20.55 18 20 18H6L2 22ZM6 14V12H16V14H6ZM6 11V9H15V11H6ZM6 8V6H11V8H6Z"></path></g></svg>