<svg width="50" height="52" viewBox="0 0 50 52" fill="none" xmlns="http://www.w3.org/2000/svg"><g clip-path="url(#clip0_2165_5350)" fill="#1B3A57"><path d="M41.275 51.337a2.858 2.858 0 01-4.023-.363l-6.011-7.21a22.68 22.68 0 01-8.21 1.65l-.332.002a22.551 22.551 0 01-15.817-6.423A22.571 22.571 0 010 23.031C-.177 10.512 9.864.181 22.383 0a22.578 22.578 0 0116.151 6.42 22.407 22.407 0 011.978 2.189h-7.12a17.537 17.537 0 00-10.677-3.59c-.086 0-.174 0-.26.003-9.75.138-17.57 8.185-17.43 17.935A17.576 17.576 0 0010.38 35.39a17.588 17.588 0 0012.578 5 17.569 17.569 0 0012.433-5.36c.031-.03.062-.064.093-.097h6.364a22.733 22.733 0 01-2.858 3.599 22.956 22.956 0 01-2.697 2.374l5.344 6.407a2.856 2.856 0 01-.363 4.022v.002z"/><path d="M33.737 11.952H19.633a2.332 2.332 0 00-2.331 2.332v.002a2.332 2.332 0 002.331 2.332h14.104a2.332 2.332 0 002.332-2.332v-.002a2.332 2.332 0 00-2.332-2.332zm10.907 7.158h-16.74a2.332 2.332 0 00-2.33 2.33v.003a2.332 2.332 0 002.33 2.332h16.74a2.332 2.332 0 002.332-2.332v-.002a2.332 2.332 0 00-2.332-2.332zm2.545 7.872H41.15a2.332 2.332 0 00-2.331 2.332v.002a2.332 2.332 0 002.331 2.332h6.039a2.332 2.332 0 002.331-2.332v-.002a2.332 2.332 0 00-2.331-2.332zm0-15.03H41.15a2.332 2.332 0 00-2.331 2.332v.002a2.332 2.332 0 002.331 2.332h6.039a2.332 2.332 0 002.331-2.332v-.002a2.332 2.332 0 00-2.331-2.332zM20.322 19.11h-6.038a2.332 2.332 0 00-2.332 2.33v.003a2.332 2.332 0 002.332 2.332h6.038a2.332 2.332 0 002.331-2.332v-.002a2.332 2.332 0 00-2.331-2.332zm5.349 7.872h-6.038a2.332 2.332 0 00-2.331 2.332v.002a2.332 2.332 0 002.331 2.332h6.038a2.332 2.332 0 002.332-2.332v-.002a2.332 2.332 0 00-2.332-2.332zm8.346 0h-.686a2.332 2.332 0 00-2.332 2.332v.002a2.332 2.332 0 002.332 2.332h.686a2.332 2.332 0 002.332-2.332v-.002a2.332 2.332 0 00-2.332-2.332z"/></g><defs><clipPath id="clip0_2165_5350"><path fill="#fff" d="M0 0h49.52v52H0z"/></clipPath></defs></svg>