<svg width="52" height="44" viewBox="0 0 52 44" fill="none" xmlns="http://www.w3.org/2000/svg"><path d="M26 0h13l6.087 9.86L52 21.895l-6.913 12.034L39 43.79H13l-5.863-9.86L0 21.895 7.137 9.86 13 0h13z" fill="#1B3A57"/><path fill-rule="evenodd" clip-rule="evenodd" d="M19.111 19.528v3.779a7.054 7.054 0 002.457 2.5v-6.279h-2.457zm4.541-3.475v10.819c.53.067 1.062.096 1.595.086.479.03.959.03 1.437 0V16.053h-3.032zm5.388 4.957v4.726a7.183 7.183 0 002.443-2.615V21.01h-2.442zm5.891 6.406l-2.04 2.04a.604.604 0 000 .863l5.086 5.086a.604.604 0 00.848 0l2.054-2.055a.604.604 0 000-.847l-5.086-5.087a.602.602 0 00-.862 0z" fill="#fff"/><path fill-rule="evenodd" clip-rule="evenodd" d="M25.247 6.842a12.93 12.93 0 100 25.862 12.93 12.93 0 000-25.862zm0 22.543a9.598 9.598 0 11.029-19.196 9.598 9.598 0 01-.03 19.196z" fill="#fff"/></svg>