<svg width="150" height="150" viewBox="0 0 150 150" fill="none" xmlns="http://www.w3.org/2000/svg">
<path d="M96.0591 56.5946C96.9888 56.6544 98.2853 57.0083 99.8051 57.2289L115.232 67.1972L64.8003 97.1931C64.0419 97.4678 63.147 97.7583 62.1242 98.0198C60.8397 98.3493 59.6444 98.5613 58.569 98.6975C57.7478 98.7888 56.6307 98.883 55.3071 98.8937L35.9355 75.791L76.5985 60.0069C76.5932 60.0123 76.5854 60.0176 76.5776 60.0227C80.7371 58.461 84.355 57.6632 87.0074 57.2289C89.9503 56.7474 92.8384 56.2977 96.064 56.5958C96.0625 56.5953 96.0609 56.5949 96.0591 56.5946C96.0515 56.5931 96.0416 56.5931 96.0351 56.5931C96.0431 56.5935 96.051 56.5941 96.0591 56.5946Z" fill="#FFC400"/>
<path d="M95.1207 18.262C94.7989 16.8102 94.3935 15.4631 93.9384 14.2231C93.1299 11.9864 91.3171 7.12852 86.8804 2.73894C86.0668 1.9332 84.9967 0.975758 83.6392 0C78.2188 6.52424 73.3557 11.233 70.1409 14.1629C61.7041 21.8486 47.8945 32.514 39.0264 40.5423C37.4881 41.9342 34.362 45.0811 31.5394 49.8711C31.5342 49.8786 31.5289 49.8866 31.5237 49.8972C31.5237 49.8972 31.5237 49.8919 31.5237 49.8892C31.0135 50.7684 30.3883 51.9061 29.737 53.2692C29.6403 53.4654 29.5408 53.6824 29.4336 53.9127C29.1589 54.5064 28.8816 55.1368 28.6069 55.8039C27.5004 58.4958 26.1453 61.8651 25.7005 66.3491C25.3108 70.2599 25.7764 73.3599 26.025 74.7045C26.1165 75.1964 26.2212 75.6749 26.3337 76.1486C26.7234 77.8331 27.2623 79.4053 27.9006 80.8623C30.9403 87.9123 35.9473 91.9934 36.7923 92.6633C42.1315 96.8828 47.5282 98.086 49.2496 98.4156C51.6903 98.881 53.7856 98.9442 55.2976 98.9021C55.2976 98.897 55.2951 98.889 55.2924 98.8839C55.3003 98.8839 55.3081 98.8839 55.3134 98.8839C55.303 98.8708 55.2924 98.8551 55.2822 98.842C54.9786 97.7275 54.615 96.1056 54.4398 94.1228C53.8405 87.3213 56.0014 82.0814 57.108 79.4733C57.9451 77.5034 59.9986 72.8784 64.375 68.6719C66.4155 66.7099 68.6235 65.1273 70.813 63.6912C73.1884 62.132 75.2655 60.918 76.4506 60.0969C76.4898 60.0732 76.4112 60.1203 76.4506 60.0969C76.4949 60.0681 76.5682 60.021 76.605 59.9922C80.7642 56.9159 88.9312 49.9757 93.1927 38.795C93.6949 37.4844 94.0848 36.1971 94.0848 36.1971C95.4216 32.0248 96.7372 25.5763 95.1156 18.2569L95.1207 18.262Z" fill="url(#paint0_linear_4943_18109)"/>
<path d="M55.2846 98.9217C53.7727 98.9636 51.6747 98.9009 49.2366 98.4353C47.5152 98.1058 42.1185 96.9021 36.7792 92.6826C35.712 91.8378 28.0053 85.5569 26.0094 74.7239C25.7608 73.3794 25.2952 70.2794 25.6849 66.3684C26.1322 61.8848 27.4848 58.5179 28.5913 55.8238C29.6298 53.294 30.705 51.2876 31.5081 49.9062C31.8508 50.8635 32.4184 52.2109 33.3576 53.6786C35.4504 56.9511 38.0166 58.6933 40.0074 60.0014C40.8733 60.569 44.9176 63.1642 51.039 64.5269C55.1851 65.4503 58.4604 65.4033 59.5696 65.3666C62.0575 65.2883 66.0102 64.8827 70.4914 63.1433C73.081 62.1386 75.1713 60.9038 76.5577 60.0381C75.3702 60.8619 73.1778 62.149 70.8025 63.7055C68.6131 65.1416 66.4053 66.7246 64.3648 68.6864C59.9881 72.893 57.9346 77.5179 57.0976 79.4877C55.9884 82.0932 53.8303 87.3356 54.4291 94.1372C54.6072 96.1541 54.9814 97.7995 55.2873 98.9139L55.2846 98.9217Z" fill="#FF9100"/>
<path d="M121.04 96.7648C122.892 93.058 123.703 89.147 123.703 89.147C123.909 88.1503 124.205 86.6803 124.336 84.8516C124.454 83.2139 124.378 80.5484 123.985 78.4136C122.735 71.6384 117.55 66.1501 117.016 65.5982C117.016 65.5982 113.516 61.9696 108.36 59.4818C107.604 59.1182 106.301 58.4851 104.483 57.9332C102.694 57.3892 101.234 57.1721 99.7875 56.9629C98.2543 56.7403 96.9622 56.6332 96.031 56.5781C96.2506 56.6017 96.5568 56.6462 96.9153 56.7299C97.7601 56.9285 98.3538 57.2294 98.8168 57.4544C99.2487 57.6664 99.9025 57.9959 100.622 58.6082C100.915 58.8593 101.279 59.1707 101.639 59.6623C101.935 60.0704 102.322 60.7115 102.529 61.559C103.152 64.1305 101.582 66.5267 101.012 67.3979C96.9675 73.5742 75.0927 86.45 62.128 99.815C58.8267 103.218 56.4826 106.263 54.7327 110.229C50.7825 119.181 52.195 127.471 52.5639 129.381C54.9574 141.796 63.9748 148.519 66.0598 149.995C72.4167 142.89 78.0408 137.467 82.1925 133.681C92.7033 124.102 106.401 113.512 106.401 113.512C106.401 113.512 116.92 105.01 121.037 96.7675L121.04 96.7648Z" fill="url(#paint1_linear_4943_18109)"/>
<defs>
<linearGradient id="paint0_linear_4943_18109" x1="34.2133" y1="87.4547" x2="85.0101" y2="2.00894" gradientUnits="userSpaceOnUse">
<stop stop-color="#F8682F"/>
<stop offset="1" stop-color="#DD2C00"/>
</linearGradient>
<linearGradient id="paint1_linear_4943_18109" x1="81.7569" y1="63.6242" x2="75.9481" y2="165.559" gradientUnits="userSpaceOnUse">
<stop stop-color="#F8682F"/>
<stop offset="0.566586" stop-color="#E92A4E"/>
<stop offset="1" stop-color="#C447FF"/>
</linearGradient>
</defs>
</svg>
