<svg xmlns="http://www.w3.org/2000/svg" aria-label="Sun" id="lightIcon" height="24" width="24" viewBox="0 0 182 182"><path fill="#212121" d="M49.828 91.317c0 22.662 18.393 41.054 41.054 41.054 22.662 0 41.054-18.392 41.054-41.054 0-22.661-18.392-41.053-41.054-41.053-22.661 0-41.054 18.392-41.054 41.053Zm49.265 82.108v-16.421c0-4.516-3.695-8.211-8.21-8.211-4.517 0-8.211 3.695-8.211 8.211v16.421c0 4.516 3.694 8.211 8.21 8.211 4.516 0 8.211-3.695 8.211-8.211Zm0-147.794V9.21c0-4.516-3.695-8.211-8.21-8.211-4.517 0-8.211 3.695-8.211 8.21v16.422c0 4.516 3.694 8.211 8.21 8.211 4.516 0 8.211-3.695 8.211-8.21ZM8.774 99.528h16.422c4.516 0 8.21-3.695 8.21-8.21 0-4.516-3.694-8.211-8.21-8.211H8.774c-4.515 0-8.21 3.695-8.21 8.21 0 4.516 3.695 8.211 8.21 8.211Zm147.795 0h16.421c4.516 0 8.211-3.695 8.211-8.21 0-4.516-3.695-8.211-8.211-8.211h-16.421c-4.516 0-8.211 3.695-8.211 8.21 0 4.516 3.695 8.211 8.211 8.211Zm-126.61 41.136c-3.203 3.203-3.203 8.457 0 11.578 3.201 3.202 8.456 3.202 11.576 0l8.704-8.704c3.202-3.202 3.202-8.457 0-11.577-3.202-3.12-8.457-3.202-11.577 0l-8.704 8.703ZM131.525 39.097c-3.202 3.202-3.202 8.457 0 11.577 3.202 3.202 8.457 3.202 11.577 0l8.703-8.703c3.203-3.202 3.203-8.457 0-11.577-3.202-3.203-8.457-3.203-11.577 0l-8.703 8.703Zm-89.99-8.704c-3.203-3.202-8.458-3.202-11.578 0-3.202 3.203-3.202 8.458 0 11.578l8.704 8.703c3.202 3.202 8.457 3.202 11.577 0 3.12-3.202 3.202-8.457 0-11.577l-8.703-8.704Zm101.567 101.568c-3.202-3.202-8.457-3.202-11.577 0-3.202 3.202-3.202 8.457 0 11.577l8.703 8.704c3.202 3.202 8.457 3.202 11.577 0 3.12-3.203 3.203-8.458 0-11.578l-8.703-8.703Z"></path></svg>